<?xml version="1.0" encoding="UTF-8"?>
<svg width="13px" height="10px" viewBox="0 0 13 10" version="1.1" xmlns="http://www.w3.org/2000/svg" xmlns:xlink="http://www.w3.org/1999/xlink">
    <!-- Generator: Sketch 53.2 (72643) - https://sketchapp.com -->
    <title>Shape</title>
    <desc>Created with Sketch.</desc>
    <g id="Page-1" stroke="none" stroke-width="1" fill="none" fill-rule="evenodd">
        <g id="контакты" transform="translate(-794.000000, -632.000000)" fill="#979797" fill-rule="nonzero">
            <g id="mail" transform="translate(794.000000, 629.000000)">
                <path d="M11.7812415,3 L1.21875848,3 C0.54669372,3 0,3.56071073 0,4.25000696 L0,11.749993 C0,12.4392893 0.54669372,13 1.21875848,13 L11.7812415,13 C12.4533063,13 13,12.4392893 13,11.749993 L13,4.25000696 C13,3.56071073 12.4533063,3 11.7812415,3 Z M11.7812415,3.83332869 C11.8364373,3.83332869 11.8889466,3.84507395 11.9369513,3.8655864 L6.5,8.6986479 L1.0630216,3.8655864 C1.11102622,3.84510178 1.16353552,3.83332869 1.21873134,3.83332869 L11.7812415,3.83332869 Z M11.7812415,12.1666435 L1.21875848,12.1666435 C0.994610256,12.1666435 0.812496608,11.9798883 0.812496608,11.7499652 L0.812496608,4.74600745 L6.23379006,9.56493011 C6.31036952,9.6328689 6.40518476,9.66665739 6.5,9.66665739 C6.59481524,9.66665739 6.68963048,9.63289674 6.76620994,9.56493011 L12.1875034,4.74600745 L12.1875034,11.749993 C12.1874763,11.9798883 12.0053897,12.1666435 11.7812415,12.1666435 L11.7812415,12.1666435 Z" id="Shape"></path>
            </g>
        </g>
    </g>
</svg>