<?xml version="1.0" encoding="UTF-8"?>
<svg width="12px" height="14px" viewBox="0 0 12 14" version="1.1" xmlns="http://www.w3.org/2000/svg" xmlns:xlink="http://www.w3.org/1999/xlink">
    <!-- Generator: Sketch 53.2 (72643) - https://sketchapp.com -->
    <title>icon</title>
    <desc>Created with Sketch.</desc>
    <g id="Page-1" stroke="none" stroke-width="1" fill="none" fill-rule="evenodd">
        <g id="контакты" transform="translate(-455.000000, -729.000000)" stroke="#979797">
            <g id="pop-ap" transform="translate(427.000000, 699.000000)">
                <g id="караван">
                    <g id="icon" transform="translate(29.000000, 31.000000)">
                        <g id="Oval-2">
                            <path d="M5,13 C8.33333333,9.37825877 10,6.66992544 10,4.875 C10,2.18261184 7.76142375,1.42108547e-14 5,1.42108547e-14 C2.23857625,1.42108547e-14 0,2.18261184 0,4.875 C0,6.66992544 1.66666667,9.37825877 5,13 Z" id="Oval"></path>
                        </g>
                        <path d="M5,7 C5.38434905,7 5.74337596,6.89158299 6.0481668,6.70366289 C6.61930543,6.35152491 7,5.72022045 7,5 C7,3.8954305 6.1045695,3 5,3 C3.8954305,3 3,3.8954305 3,5 C3,6.1045695 3.8954305,7 5,7 Z" id="Oval"></path>
                    </g>
                </g>
            </g>
        </g>
    </g>
</svg>