<?xml version="1.0" encoding="UTF-8"?>
<svg width="15px" height="15px" viewBox="0 0 15 15" version="1.1" xmlns="http://www.w3.org/2000/svg" xmlns:xlink="http://www.w3.org/1999/xlink">
    <!-- Generator: Sketch 53.2 (72643) - https://sketchapp.com -->
    <title>icon</title>
    <desc>Created with Sketch.</desc>
    <g id="Page-1" stroke="none" stroke-width="1" fill="none" fill-rule="evenodd">
        <g id="контакты" transform="translate(-454.000000, -775.000000)" stroke="#979797">
            <g id="pop-ap" transform="translate(427.000000, 699.000000)">
                <g id="караван">
                    <g id="icon" transform="translate(28.000000, 77.000000)">
                        <path d="M11.999989,9.35860969 C11.596018,9.03530724 11.1636599,8.74455201 10.7385805,8.44801061 C9.88987751,7.85601273 9.114326,7.81008497 8.48107418,8.7626338 C8.12550693,9.29749323 7.62800392,9.32099956 7.10793677,9.08629789 C5.67329386,8.43969299 4.56546712,7.44410949 3.91656598,5.99539627 C3.63014691,5.35457754 3.63378629,4.77957654 4.30488764,4.32644681 C4.66081883,4.08668225 5.01856972,3.80315974 4.99018256,3.27914939 C4.95306091,2.59601927 3.28404204,0.313373771 2.6245867,0.072524294 C2.35163333,-0.027287201 2.08013571,-0.0207777557 1.80281509,0.0718010223 C0.257171147,0.588578654 -0.38263155,1.85141105 0.230239748,3.34677529 C2.05939126,7.80827679 5.27769345,10.9143671 9.70790859,12.8104239 C9.96084538,12.9181914 10.2414414,12.961226 10.3837411,12.9999211 C11.3922128,13.0100469 12.573919,12.0441175 12.9152926,11.0857825 C13.2435646,10.1639727 12.5495351,9.79799725 11.999989,9.35860969" id="Fill-4"></path>
                    </g>
                </g>
            </g>
        </g>
    </g>
</svg>