<svg id="75d56dc4-316e-4052-a1d9-664b92fd4fd6" data-name="Слой 2" xmlns="http://www.w3.org/2000/svg" viewBox="0 0 415.75953 100.91076">
  <title>Монтажная область 1</title>
  <path d="M37.34853-.06227.03719,14.63609V56.07591H15.10341V92.5797l20.60345,8.741L71.70351,71.3231V31.02043Zm27.475,68.16253L34.528,93.3466,21.98341,88.02483v-38.829H6.91731V19.3203L35.89888,7.904,64.8235,34.07414Z"/>
  <path d="M101.49709,30.38786l-15.41565-.02154v41.566h15.49609s20.06458-.78614,20.07288-21.307C120.49208,33.56273,106.61708,30.646,101.49709,30.38786Zm.00543,33.8252H94.27534V38.08556l7.07092.01355c2.84376.08862,11.68751,1.63024,12.11024,12.72082C113.315,64.21306,101.50252,64.21306,101.50252,64.21306Z" style="fill: #231f20"/>
  <polygon points="148.605 38.086 148.605 30.366 130.434 30.366 130.434 38.086 135.423 38.086 135.423 64.213 130.434 64.213 130.434 71.932 148.605 71.932 148.605 64.213 143.617 64.213 143.617 38.086 148.605 38.086" style="fill: #231f20"/>
  <polygon points="169.368 64.213 186.573 38.086 188.448 35.236 188.448 30.366 159.647 30.366 159.647 38.086 177.106 38.086 159.955 64.213 159.955 64.213 158.045 67.122 158.045 71.932 188.982 71.932 188.982 64.213 169.368 64.213" style="fill: #231f20"/>
  <polygon points="206.537 64.213 223.743 38.086 225.617 35.236 225.617 30.366 196.816 30.366 196.816 38.086 214.275 38.086 197.124 64.213 197.124 64.213 195.214 67.122 195.214 71.932 226.151 71.932 226.151 64.213 206.537 64.213" style="fill: #231f20"/>
  <path d="M295.73671,30.84972A20.50591,20.50591,0,0,0,275.003,51.61265a20.73372,20.73372,0,1,0,41.4674,0A20.54668,20.54668,0,0,0,295.73671,30.84972Zm.00092,37.27917c-9.32886.00134-16.19776-7.39954-16.19733-16.51624a16.2004,16.2004,0,1,1,32.39465,0A16.20222,16.20222,0,0,1,295.73763,68.12889Z" style="fill: #231f20"/>
  <path d="M345.23365,30.84972A20.50591,20.50591,0,0,0,324.5,51.61265a20.73372,20.73372,0,1,0,41.4674,0A20.54668,20.54668,0,0,0,345.23365,30.84972Zm.00092,37.27917c-9.32886.00134-16.19776-7.39954-16.19733-16.51624a16.2004,16.2004,0,1,1,32.39465,0A16.20222,16.20222,0,0,1,345.23457,68.12889Z" style="fill: #231f20"/>
  <path d="M264.2422,65.74473c.03284.0058-1.23333-1.86212-1.60833-2.31988a16.18355,16.18355,0,0,0-3.92194-3.80011,9.00039,9.00039,0,0,0-1.21625-.62653c-.01233.06275,9.55829-2.17858,10.34137-11.618.77289-9.31634-5.47-13.06744-8.44433-14.38647a23.96184,23.96184,0,0,0-8.27436-1.72638c-1.25427-.00836-6.70019-.00421-9.32513-.00159v-.00952H237.256v40.712h4.53723V60.56889l8.49151.00287a14.74579,14.74579,0,0,1,3.6651.508c1.29419.46972,2.78705,1.31335,4.95893,4.35907,1.5758,2.38751,4.23785,6.54205,4.22961,6.52942h5.17584Zm-13.25012-9.4212h-9.19885v-20.822H250.94s12.40307-.38171,12.66363,10.01947C263.84625,55.20854,254.24208,56.32353,250.99208,56.32353Z" style="fill: #231f20"/>
  <polygon points="412.844 31.257 411.052 33.541 395.68 53.129 380.491 33.756 378.531 31.256 375.972 31.256 375.972 71.968 380.492 71.968 380.491 39.911 395.686 59.287 395.881 59.039 395.881 59.039 395.942 58.961 398.102 56.217 398.101 56.217 410.883 39.968 410.883 71.969 415.403 71.969 415.403 31.257 412.844 31.257" style="fill: #231f20"/>
</svg>
