<svg width="180" height="45" viewBox="0 0 180 45" fill="none" xmlns="http://www.w3.org/2000/svg" shape-rendering="geometricPrecision">
  <path d="M27.9596 30.2592L14.8946 41.4597L9.48464 39.0987V21.8724H2.98732V8.61828L15.4858 3.55353L27.9596 15.1637V30.2592ZM16.1109 0.0193329L0.0202026 6.54017V24.9247H6.51761V41.1194L15.4029 44.9973L30.9267 31.6891V13.809L16.1109 0.0193329Z" fill="#1A1919"/>
  <path d="M43.3502 28.5347C46.4745 28.5347 48.9329 26.4802 48.9329 22.7391C48.9329 19.0249 46.4745 16.9434 43.3502 16.9434H40.6616V28.5347H43.3502ZM43.3502 13.5188C48.3949 13.5188 52.4665 17.3916 52.4665 22.7391C52.4665 28.1129 48.3949 31.9593 43.3502 31.9593H37.1273V13.5188H43.3502Z" fill="#1A1919"/>
  <path d="M64.091 28.5347V31.9593H56.2547V28.5347H58.406V16.9434H56.2547V13.5188H64.091V16.9434H61.9397V28.5347H64.091Z" fill="#1A1919"/>
  <path d="M68.1619 31.9593V29.8252L76.382 16.9434H68.8528V13.5188H81.2732V15.6793L73.0531 28.5347H81.5035V31.9593H68.1619Z" fill="#1A1919"/>
  <path d="M84.1914 31.9593V29.8252L92.4115 16.9434H84.8822V13.5188H97.3026V15.6793L89.0825 28.5347H97.5329V31.9593H84.1914Z" fill="#1A1919"/>
  <path d="M104.279 25.0346H108.116C111.151 25.0346 113.685 23.641 113.685 20.4158C113.685 17.2419 111.151 15.7971 108.116 15.7971H104.279V25.0346ZM107.965 13.9136C112.43 13.9136 115.54 16.3906 115.54 20.4158C115.54 23.4345 113.734 25.4218 111.05 26.2212C112.004 26.634 112.882 27.486 113.96 29.2143L115.716 31.9753H113.484L112.054 29.6791C110.574 27.3308 109.746 26.9436 107.866 26.918H104.279V31.9753H102.322V13.9136H107.965Z" fill="#1A1919"/>
  <path d="M120.557 22.9448C120.557 27.15 123.642 30.272 127.53 30.272C131.418 30.272 134.528 27.15 134.528 22.9448C134.528 18.7645 131.418 15.6162 127.53 15.6162C123.642 15.6162 120.557 18.7645 120.557 22.9448ZM136.484 22.9448C136.484 28.0533 132.471 32.156 127.53 32.156C122.589 32.156 118.601 28.0533 118.601 22.9448C118.601 17.8612 122.589 13.7328 127.53 13.7328C132.471 13.7328 136.484 17.8612 136.484 22.9448Z" fill="#1A1919"/>
  <path d="M141.903 22.9448C141.903 27.15 144.988 30.272 148.875 30.272C152.763 30.272 155.873 27.15 155.873 22.9448C155.873 18.7645 152.763 15.6162 148.875 15.6162C144.988 15.6162 141.903 18.7645 141.903 22.9448ZM157.83 22.9448C157.83 28.0533 153.817 32.156 148.875 32.156C143.934 32.156 139.946 28.0533 139.946 22.9448C139.946 17.8612 143.934 13.7328 148.875 13.7328C153.817 13.7328 157.83 17.8612 157.83 22.9448Z" fill="#1A1919"/>
  <path d="M177.193 31.9753V17.7843L170.646 26.35L164.1 17.7843V31.9753H162.144V13.9136H163.247L170.646 23.6152L178.045 13.9136H179.149V31.9753H177.193Z" fill="#1A1919"/>
</svg>