<?xml version="1.0" encoding="UTF-8"?>
<svg width="40px" height="41px" viewBox="0 0 40 41" version="1.1" xmlns="http://www.w3.org/2000/svg" xmlns:xlink="http://www.w3.org/1999/xlink">
    <!-- Generator: Sketch 53.2 (72643) - https://sketchapp.com -->
    <title>T</title>
    <desc>Created with Sketch.</desc>
    <defs>
        <polygon id="path-1" points="0 0.0522318841 39.9477681 0.0522318841 39.9477681 40 0 40"></polygon>
    </defs>
    <g id="Page-1" stroke="none" stroke-width="1" fill="none" fill-rule="evenodd">
        <g id="контакты" transform="translate(-597.000000, -391.000000)">
            <g id="messengers" transform="translate(343.000000, 391.000000)">
                <g id="T" transform="translate(254.000000, 0.000000)">
                    <g id="Group-3" transform="translate(0.000000, 0.727273)">
                        <mask id="mask-2" fill="white">
                            <use xlink:href="#path-1"></use>
                        </mask>
                        <g id="Clip-2"></g>
                        <path d="M-5.79710145e-05,20.0261449 C-5.79710145e-05,8.99484058 8.94255072,0.0522318841 19.9738551,0.0522318841 C31.0051594,0.0522318841 39.9477681,8.99484058 39.9477681,20.0261449 C39.9477681,31.0574493 31.0051594,40.000058 19.9738551,40.000058 C8.94255072,40.000058 -5.79710145e-05,31.0574493 -5.79710145e-05,20.0261449" id="Fill-1" fill="#40343A" mask="url(#mask-2)"></path>
                    </g>
                    <path d="M17.319475,27.3352216 C17.396257,27.2980856 17.388808,27.2444448 17.392819,27.2025931 C17.489083,26.1445129 17.5887849,25.0870221 17.6730159,24.0283524 C17.6942169,23.7648639 17.7732908,23.5691633 17.9721217,23.3852519 C20.7202284,20.8476277 23.45974,18.3005721 26.2015437,15.7552849 C26.3751626,15.5949519 26.5493545,15.4357978 26.7189624,15.2701596 C26.7888684,15.2017822 26.8811213,15.1233841 26.8266864,15.0102078 C26.7699594,14.8923159 26.6484835,14.8970316 26.5407595,14.9099997 C26.3304686,14.934757 26.1505467,15.0408597 25.9746358,15.1552149 C22.5933645,17.3497735 19.2132391,19.5455111 15.8279568,21.7335857 C15.6360019,21.8579617 15.6096439,21.9717274 15.6784038,22.1833434 C16.0972666,23.4707235 16.5029504,24.7628193 16.9132182,26.0537361 C17.0478732,26.479326 17.1831011,26.9055054 17.319475,27.3352216 M30.5454545,12.7737976 C30.5041986,13.3054902 30.3512076,13.8678348 30.2343157,14.436074 C29.2682382,19.1452679 28.2958577,23.8532829 27.3240501,28.5607084 C27.2678962,28.8318599 27.2083042,29.1030114 27.0667733,29.3452793 C26.8341354,29.7431646 26.4989305,29.8893507 26.0594397,29.7861952 C25.7826809,29.7213546 25.542021,29.5875473 25.3145401,29.4142461 C23.8493798,28.2954515 22.3784896,27.1854988 20.9173403,26.0608096 C20.7316884,25.9181604 20.6256834,25.9340758 20.4686815,26.0944088 C19.7478478,26.8300546 19.0138352,27.5515533 18.2907096,28.2860202 C18.0156697,28.5660135 17.7108338,28.7340096 17.309734,28.7192731 C17.0260992,28.7086628 16.8639403,28.5895919 16.7774173,28.3113669 C16.3258935,26.8595276 15.8663478,25.4106355 15.409094,23.9605646 C15.2538111,23.4689551 15.0893601,22.9797035 14.9443912,22.4845574 C14.8922482,22.3059511 14.8028603,22.2145848 14.6275224,22.159765 C13.1944501,21.7064705 11.7636698,21.2431551 10.3323165,20.7833765 C10.1437996,20.7226622 9.95413666,20.6613584 9.78567474,20.5523083 C9.37712594,20.2876409 9.34446496,19.9345545 9.69972478,19.5997414 C9.94267666,19.371031 10.2383445,19.2348658 10.5414614,19.114616 C12.4930984,18.338887 14.4453085,17.5637474 16.3980915,16.7891973 C20.6130774,15.1174895 24.8280634,13.4463711 29.0436223,11.7746633 C29.0774293,11.7616952 29.1100903,11.7463692 29.1438972,11.7334011 C29.9363558,11.4298293 30.5391515,11.8554193 30.5454545,12.7737976" id="Fill-4" fill="#FEFEFE"></path>
                </g>
            </g>
        </g>
    </g>
</svg>