<?xml version="1.0" encoding="UTF-8"?>
<svg width="40px" height="40px" viewBox="0 0 40 40" version="1.1" xmlns="http://www.w3.org/2000/svg" xmlns:xlink="http://www.w3.org/1999/xlink">
    <!-- Generator: Sketch 53.2 (72643) - https://sketchapp.com -->
    <title>V</title>
    <desc>Created with Sketch.</desc>
    <g id="Page-1" stroke="none" stroke-width="1" fill="none" fill-rule="evenodd">
        <g id="контакты" transform="translate(-398.000000, -392.000000)">
            <g id="messengers" transform="translate(343.000000, 391.000000)">
                <g id="V" transform="translate(55.000000, 1.000000)">
                    <g id="Group-3" fill="#40343A">
                        <path d="M0.000115942029,20.0256812 C0.000115942029,8.99437681 8.94272464,0.0517681159 19.974029,0.0517681159 C31.0047536,0.0517681159 39.947942,8.99437681 39.947942,20.0256812 C39.947942,31.0569855 31.0047536,40.0001739 19.974029,40.0001739 C8.94272464,40.0001739 0.000115942029,31.0569855 0.000115942029,20.0256812" id="Fill-1"></path>
                    </g>
                    <path d="M28.251731,24.6377444 C27.6189373,24.1132257 26.941677,23.641511 26.2758184,23.1604088 C24.9463815,22.1999647 23.7315316,22.1254525 22.7395847,23.6708465 C22.1826123,24.5385904 21.4033068,24.5767266 20.5886562,24.1959518 C18.3413834,23.1469145 16.6060464,21.5317021 15.5895859,19.1813422 C15.1409294,18.1416922 15.1466303,17.2088235 16.197866,16.473676 C16.7554085,16.0846873 17.3158015,15.6247067 17.2713349,14.774564 C17.2131863,13.666269 14.5987791,9.96295605 13.5657862,9.57220725 C13.1382228,9.41027531 12.7129399,9.42083609 12.2785355,9.57103383 C9.85738697,10.4094423 8.85517855,12.4582333 9.81520072,14.8842788 C12.680445,22.122519 17.7217016,27.1617704 24.6613393,30.2378905 C25.057548,30.4127301 25.4970831,30.4825485 25.7199861,30.5453265 C27.2996901,30.5617544 29.1507542,28.9946522 29.6854934,27.4398709 C30.1997095,25.9443474 29.1125585,25.3505969 28.251731,24.6377444" id="Fill-4" fill="#F1F2F2"></path>
                    <path d="M20.6645266,10.5987925 C25.7284914,11.4010861 28.0641741,13.8812223 28.7094028,19.1345163 C28.7685773,19.6197604 28.5933299,20.3499706 29.265301,20.3634496 C29.9679973,20.3769286 29.7984398,19.6578532 29.8041296,19.1720231 C29.863873,14.2246438 25.6755758,9.63768114 20.8107557,9.46890061 C20.4437605,9.52281661 19.6847347,9.20811124 19.637509,10.0549441 C19.6056458,10.6263366 20.2457537,10.5325696 20.6645266,10.5987925" id="Fill-6" fill="#F1F2F2"></path>
                    <path d="M21.6870399,11.7222411 C21.1744116,11.6630866 20.4982933,11.4310634 20.3773226,12.1133495 C20.2527587,12.8295202 21.0067295,12.7571565 21.49181,12.8611075 C24.7837697,13.5663662 25.929398,14.7155704 26.4713707,17.8473096 C26.5504208,18.3033156 26.3935183,19.0143175 27.2025846,18.8960086 C27.8020482,18.8087127 27.585858,18.1999389 27.6361627,17.8438637 C27.6631116,14.8373251 24.9760053,12.1012889 21.6870399,11.7222411" id="Fill-8" fill="#F1F2F2"></path>
                    <path d="M21.8657266,13.8187755 C21.5542887,13.8276196 21.2493844,13.8667861 21.1350453,14.252766 C20.9629921,14.8288931 21.3245215,14.9666076 21.6920401,15.0348332 C22.9203688,15.264147 23.5655681,16.1037005 23.6886188,17.524435 C23.7218315,17.9097831 23.9325422,18.2218519 24.2537806,18.1776317 C24.6980698,18.116355 24.7383607,17.6570958 24.7252934,17.2205785 C24.7470722,15.6248581 23.1926048,13.7802407 21.8657266,13.8187755" id="Fill-10" fill="#F1F2F2"></path>
                </g>
            </g>
        </g>
    </g>
</svg>