<?xml version="1.0" encoding="UTF-8"?>
<svg width="40px" height="40px" viewBox="0 0 40 40" version="1.1" xmlns="http://www.w3.org/2000/svg" xmlns:xlink="http://www.w3.org/1999/xlink">
    <!-- Generator: Sketch 53.2 (72643) - https://sketchapp.com -->
    <title>W</title>
    <desc>Created with Sketch.</desc>
    <defs>
        <polygon id="path-1" points="0 0.0522318841 39.9477681 0.0522318841 39.9477681 40 0 40"></polygon>
    </defs>
    <g id="Page-1" stroke="none" stroke-width="1" fill="none" fill-rule="evenodd">
        <g id="контакты" transform="translate(-796.000000, -392.000000)">
            <g id="messengers" transform="translate(343.000000, 391.000000)">
                <g id="W" transform="translate(453.000000, 1.000000)">
                    <g id="Group-3">
                        <mask id="mask-2" fill="white">
                            <use xlink:href="#path-1"></use>
                        </mask>
                        <g id="Clip-2"></g>
                        <path d="M-5.79710145e-05,20.0261449 C-5.79710145e-05,8.99484058 8.94255072,0.0522318841 19.9738551,0.0522318841 C31.0051594,0.0522318841 39.9477681,8.99484058 39.9477681,20.0261449 C39.9477681,31.0574493 31.0051594,40.000058 19.9738551,40.000058 C8.94255072,40.000058 -5.79710145e-05,31.0574493 -5.79710145e-05,20.0261449" id="Fill-1" fill="#40343A" mask="url(#mask-2)"></path>
                    </g>
                    <path d="M20.2037275,8.72727273 C14.0919015,8.72727273 9.13649422,13.6438271 9.13649422,19.7096224 C9.13649422,21.7849166 9.71705881,23.7252467 10.7250979,25.3804574 L8.72727273,31.2727273 L14.8544077,29.3265547 C16.4406562,30.1959347 18.2641943,30.6925563 20.2037275,30.6925563 C26.3179088,30.6925563 31.2727273,25.7748334 31.2727273,19.7096224 C31.2727273,13.6438271 26.3179088,8.72727273 20.2037275,8.72727273 M20.2037275,28.8521349 C18.3336736,28.8521349 16.5902134,28.2953344 15.1358579,27.340068 L11.5947672,28.46477 L12.7452978,25.070215 C11.6424606,23.5628222 10.9912391,21.7112998 10.9912391,19.7096224 C10.9912391,14.667452 15.1246706,10.5665256 20.2037275,10.5665256 C25.2851397,10.5665256 29.4179824,14.667452 29.4179824,19.7096224 C29.4179824,24.7506243 25.2851397,28.8521349 20.2037275,28.8521349 M25.3934804,22.2050001 C25.1167407,22.0542609 23.7530616,21.3245192 23.4981077,21.2216893 C23.2431539,21.1182751 23.055913,21.0645231 22.8563071,21.3385414 C22.6578789,21.6113912 22.0920345,22.222528 21.9212802,22.4030645 C21.7493483,22.5853539 21.5833044,22.6017132 21.3053871,22.4503897 C21.0292362,22.2996504 20.1295377,21.9701273 19.0867589,20.9751312 C18.2747928,20.2009857 17.7425105,19.2620786 17.5882428,18.9752066 C17.4333864,18.6889188 17.587654,18.5428536 17.7336784,18.4078894 C17.8661602,18.2863632 18.02926,18.0900515 18.1764619,17.9323011 C18.3230751,17.7745507 18.3748902,17.6588671 18.4761652,17.4759935 C18.5774401,17.2925356 18.5362236,17.1271898 18.4708659,16.9840459 C18.4055082,16.8414863 17.8926565,15.440429 17.6789193,14.8707747 C17.4645932,14.3011205 17.2255372,14.3858383 17.0612598,14.3794114 C16.8958047,14.3735688 16.7085638,14.342603 16.5207341,14.3361761 C16.3317268,14.329165 16.0226026,14.3875911 15.7541062,14.6581038 C15.4844322,14.9286165 14.7284029,15.5800673 14.6765878,16.9600912 C14.6241839,18.3389466 15.586296,19.7096224 15.7205442,19.9012599 C15.8547924,20.094066 17.557036,23.0837283 20.386258,24.313013 C23.2160688,25.5428819 23.2313778,25.1683708 23.7501175,25.1409105 C24.2700349,25.1134502 25.4470619,24.5239311 25.7079038,23.8789072 C25.9681569,23.2327148 25.989354,22.6718245 25.9228187,22.5526353 C25.8568722,22.4328618 25.6708089,22.3557394 25.3934804,22.2050001" id="Fill-4" fill="#F1F2F2"></path>
                </g>
            </g>
        </g>
    </g>
</svg>