<svg xmlns="http://www.w3.org/2000/svg" width="77.188" height="107.969" viewBox="0 0 77.188 107.969">
  <defs>
    <style>
      .cls-1 {
        fill: #fff;
        fill-rule: evenodd;
      }
    </style>
  </defs>
  <path class="cls-1" d="M307.69,701.116l-6.569,10.544-32.789-20.414L274.9,680.7a9.937,9.937,0,0,1,13.686-3.185l15.927,9.916A9.937,9.937,0,0,1,307.69,701.116Zm-39.421,63.192L235.552,743.9l30.284-48.542,32.719,20.426Zm4.417-56.66a3.172,3.172,0,0,0-4.4.871l-21.53,34.487a3.154,3.154,0,0,0,1.162,4.327,3.2,3.2,0,0,0,4.405-.839L273.848,712A3.2,3.2,0,0,0,272.686,707.648Zm11.854,7.4a3.189,3.189,0,0,0-4.405.868l-21.535,34.5a3.3,3.3,0,0,0,5.579,3.478l21.535-34.482A3.217,3.217,0,0,0,284.54,715.044Zm-33.731,61.2A19.714,19.714,0,0,0,232.6,764.9L232,749.686l32.69,20.4Zm-9.22-5.506a15.5,15.5,0,0,1,6.016,6.922l-14.267,6.327-0.609-15.592A15.546,15.546,0,0,1,241.589,770.736Z" transform="translate(-232 -676.031)"/>
</svg>
